<?xml version="1.0" encoding="UTF-8" standalone="no"?>
<!-- Created with Inkscape (http://www.inkscape.org/) -->

<svg
   xmlns:dc="http://purl.org/dc/elements/1.1/"
   xmlns:cc="http://creativecommons.org/ns#"
   xmlns:rdf="http://www.w3.org/1999/02/22-rdf-syntax-ns#"
   xmlns:svg="http://www.w3.org/2000/svg"
   xmlns="http://www.w3.org/2000/svg"
   xmlns:sodipodi="http://sodipodi.sourceforge.net/DTD/sodipodi-0.dtd"
   xmlns:inkscape="http://www.inkscape.org/namespaces/inkscape"
   width="128"
   height="128"
   viewBox="0 0 33.866666 33.866668"
   version="1.1"
   id="svg8"
   sodipodi:docname="unknown.svg"
   inkscape:version="0.92.2 (5c3e80d, 2017-08-06)">
  <defs
     id="defs2">
    <marker
       inkscape:stockid="Arrow1Lstart"
       orient="auto"
       refY="0.0"
       refX="0.0"
       id="marker1175"
       style="overflow:visible"
       inkscape:isstock="true">
      <path
         id="path1173"
         d="M 0.0,0.0 L 5.0,-5.0 L -12.5,0.0 L 5.0,5.0 L 0.0,0.0 z "
         style="fill-rule:evenodd;stroke:#000000;stroke-width:1pt;stroke-opacity:1;fill:#000000;fill-opacity:1"
         transform="scale(0.8) translate(12.5,0)" />
    </marker>
    <marker
       inkscape:stockid="Arrow1Lstart"
       orient="auto"
       refY="0.0"
       refX="0.0"
       id="marker1105"
       style="overflow:visible"
       inkscape:isstock="true">
      <path
         id="path1103"
         d="M 0.0,0.0 L 5.0,-5.0 L -12.5,0.0 L 5.0,5.0 L 0.0,0.0 z "
         style="fill-rule:evenodd;stroke:#000000;stroke-width:1pt;stroke-opacity:1;fill:#000000;fill-opacity:1"
         transform="scale(0.8) translate(12.5,0)" />
    </marker>
    <marker
       inkscape:stockid="Arrow1Lstart"
       orient="auto"
       refY="0.0"
       refX="0.0"
       id="Arrow1Lstart"
       style="overflow:visible"
       inkscape:isstock="true">
      <path
         id="path827"
         d="M 0.0,0.0 L 5.0,-5.0 L -12.5,0.0 L 5.0,5.0 L 0.0,0.0 z "
         style="fill-rule:evenodd;stroke:#000000;stroke-width:1pt;stroke-opacity:1;fill:#000000;fill-opacity:1"
         transform="scale(0.8) translate(12.5,0)" />
    </marker>
    <inkscape:path-effect
       effect="bspline"
       id="path-effect819"
       is_visible="true"
       weight="33.333333"
       steps="2"
       helper_size="0"
       apply_no_weight="true"
       apply_with_weight="true"
       only_selected="false" />
    <filter
       style="color-interpolation-filters:sRGB;"
       inkscape:label="Blur"
       id="filter5052">
      <feGaussianBlur
         stdDeviation="0.8 0.8"
         result="blur"
         id="feGaussianBlur5050" />
    </filter>
  </defs>
  <sodipodi:namedview
     id="base"
     pagecolor="#ffffff"
     bordercolor="#666666"
     borderopacity="1.0"
     inkscape:pageopacity="0.0"
     inkscape:pageshadow="2"
     inkscape:zoom="3.959798"
     inkscape:cx="58.312842"
     inkscape:cy="51.814719"
     inkscape:document-units="mm"
     inkscape:current-layer="layer1"
     showgrid="true"
     units="px"
     inkscape:pagecheckerboard="true"
     inkscape:snap-bbox="true"
     inkscape:snap-nodes="false"
     inkscape:snap-bbox-midpoints="false"
     inkscape:bbox-nodes="true"
     inkscape:bbox-paths="true"
     inkscape:window-width="1440"
     inkscape:window-height="810"
     inkscape:window-x="323"
     inkscape:window-y="91"
     inkscape:window-maximized="0"
     inkscape:snap-bbox-edge-midpoints="false">
    <inkscape:grid
       type="xygrid"
       id="grid815"
       empspacing="4"
       spacingx="1.0583333"
       spacingy="1.0583333" />
  </sodipodi:namedview>
  <metadata
     id="metadata5">
    <rdf:RDF>
      <cc:Work
         rdf:about="">
        <dc:format>image/svg+xml</dc:format>
        <dc:type
           rdf:resource="http://purl.org/dc/dcmitype/StillImage" />
        <dc:title />
      </cc:Work>
    </rdf:RDF>
  </metadata>
  <g
     inkscape:label="Layer 1"
     inkscape:groupmode="layer"
     id="layer1"
     transform="translate(0,-263.1333)">
    <g
       aria-label="?"
       transform="matrix(1.0727658,0,0,1.1521371,-0.68525473,-32.753054)"
       style="font-style:normal;font-variant:normal;font-weight:normal;font-stretch:normal;font-size:22.28177261000000087px;line-height:1.25;font-family:'Arial Rounded MT Bold';-inkscape-font-specification:'Arial Rounded MT Bold, Normal';font-variant-ligatures:normal;font-variant-caps:normal;font-variant-numeric:normal;font-feature-settings:normal;text-align:start;letter-spacing:0px;word-spacing:0px;writing-mode:lr-tb;text-anchor:start;fill:#000000;fill-opacity:0.33152175;stroke:none;stroke-width:0.55704761;filter:url(#filter5052)"
       id="text3235-4">
      <path
         id="path3237-1"
         style="font-style:normal;font-variant:normal;font-weight:normal;font-stretch:normal;font-size:22.28177261000000087px;font-family:'Arial Rounded MT Bold';-inkscape-font-specification:'Arial Rounded MT Bold, Normal';font-variant-ligatures:normal;font-variant-caps:normal;font-variant-numeric:normal;font-feature-settings:normal;text-align:start;writing-mode:lr-tb;text-anchor:start;fill:#000000;stroke-width:0.55704761;fill-opacity:0.33152175"
         d="m 11.96775,270.80644 q 0,-1.03358 0.663666,-2.08891 0.663666,-1.06622 1.936599,-1.76253 1.272933,-0.6963 2.970178,-0.6963 1.577567,0 2.785221,0.58751 1.207655,0.57662 1.860441,1.57756 0.663666,1.00094 0.663666,2.17596 0,0.92478 -0.380792,1.62108 -0.369912,0.69631 -0.892141,1.20766 -0.511349,0.50047 -1.849561,1.69724 -0.369912,0.33728 -0.598387,0.59839 -0.217596,0.25023 -0.326394,0.46783 -0.108797,0.20672 -0.174076,0.42431 -0.0544,0.20672 -0.174076,0.73983 -0.206716,1.13149 -1.294693,1.13149 -0.565748,0 -0.95742,-0.36991 -0.380792,-0.36991 -0.380792,-1.09886 0,-0.9139 0.282874,-1.57756 0.282874,-0.67455 0.750704,-1.17502 0.46783,-0.51135 1.262054,-1.20765 0.696305,-0.60927 1.000939,-0.9139 0.315513,-0.31552 0.522229,-0.69631 0.217595,-0.38079 0.217595,-0.82686 0,-0.87038 -0.652786,-1.46877 -0.641907,-0.59839 -1.664605,-0.59839 -1.196775,0 -1.762523,0.60927 -0.565748,0.59839 -0.95742,1.7734 -0.369912,1.22941 -1.403491,1.22941 -0.609267,0 -1.033578,-0.42431 -0.413431,-0.43519 -0.413431,-0.93566 z m 5.309328,11.92423 q -0.663666,0 -1.164135,-0.42431 -0.48959,-0.43519 -0.48959,-1.20765 0,-0.68543 0.47871,-1.15326 0.47871,-0.46783 1.175015,-0.46783 0.685426,0 1.153256,0.46783 0.46783,0.46783 0.46783,1.15326 0,0.76158 -0.489589,1.19677 -0.48959,0.43519 -1.131497,0.43519 z m 0.20248,-22.24009 a 2.3455952,2.3573284 0 0 0 -2.079125,1.14065 L 3.9339129,280.80048 a 2.3455952,2.3573284 0 0 0 2.0107706,3.57223 H 28.876299 a 2.3455952,2.3573284 0 0 0 2.010771,-3.5708 L 19.421974,261.63266 a 2.3455952,2.3573284 0 0 0 -1.942416,-1.14208 z"
         inkscape:connector-curvature="0" />
    </g>
    <g
       aria-label="?"
       transform="matrix(1.0727658,0,0,1.1521371,-1.743589,-33.81137)"
       style="font-style:normal;font-variant:normal;font-weight:normal;font-stretch:normal;font-size:22.28177261px;line-height:1.25;font-family:'Arial Rounded MT Bold';-inkscape-font-specification:'Arial Rounded MT Bold, Normal';font-variant-ligatures:normal;font-variant-caps:normal;font-variant-numeric:normal;font-feature-settings:normal;text-align:start;letter-spacing:0px;word-spacing:0px;writing-mode:lr-tb;text-anchor:start;fill:#000000;fill-opacity:1;stroke:none;stroke-width:0.55704761"
       id="text3235">
      <path
         id="path3237"
         style="font-style:normal;font-variant:normal;font-weight:normal;font-stretch:normal;font-size:22.28177261px;font-family:'Arial Rounded MT Bold';-inkscape-font-specification:'Arial Rounded MT Bold, Normal';font-variant-ligatures:normal;font-variant-caps:normal;font-variant-numeric:normal;font-feature-settings:normal;text-align:start;writing-mode:lr-tb;text-anchor:start;fill:#ffffff;stroke-width:0.55704761"
         d="m 11.96775,270.80644 q 0,-1.03358 0.663666,-2.08891 0.663666,-1.06622 1.936599,-1.76253 1.272933,-0.6963 2.970178,-0.6963 1.577567,0 2.785221,0.58751 1.207655,0.57662 1.860441,1.57756 0.663666,1.00094 0.663666,2.17596 0,0.92478 -0.380792,1.62108 -0.369912,0.69631 -0.892141,1.20766 -0.511349,0.50047 -1.849561,1.69724 -0.369912,0.33728 -0.598387,0.59839 -0.217596,0.25023 -0.326394,0.46783 -0.108797,0.20672 -0.174076,0.42431 -0.0544,0.20672 -0.174076,0.73983 -0.206716,1.13149 -1.294693,1.13149 -0.565748,0 -0.95742,-0.36991 -0.380792,-0.36991 -0.380792,-1.09886 0,-0.9139 0.282874,-1.57756 0.282874,-0.67455 0.750704,-1.17502 0.46783,-0.51135 1.262054,-1.20765 0.696305,-0.60927 1.000939,-0.9139 0.315513,-0.31552 0.522229,-0.69631 0.217595,-0.38079 0.217595,-0.82686 0,-0.87038 -0.652786,-1.46877 -0.641907,-0.59839 -1.664605,-0.59839 -1.196775,0 -1.762523,0.60927 -0.565748,0.59839 -0.95742,1.7734 -0.369912,1.22941 -1.403491,1.22941 -0.609267,0 -1.033578,-0.42431 -0.413431,-0.43519 -0.413431,-0.93566 z m 5.309328,11.92423 q -0.663666,0 -1.164135,-0.42431 -0.48959,-0.43519 -0.48959,-1.20765 0,-0.68543 0.47871,-1.15326 0.47871,-0.46783 1.175015,-0.46783 0.685426,0 1.153256,0.46783 0.46783,0.46783 0.46783,1.15326 0,0.76158 -0.489589,1.19677 -0.48959,0.43519 -1.131497,0.43519 z m 0.20248,-22.24009 a 2.3455952,2.3573284 0 0 0 -2.079125,1.14065 L 3.9339129,280.80048 a 2.3455952,2.3573284 0 0 0 2.0107706,3.57223 H 28.876299 a 2.3455952,2.3573284 0 0 0 2.010771,-3.5708 L 19.421974,261.63266 a 2.3455952,2.3573284 0 0 0 -1.942416,-1.14208 z"
         inkscape:connector-curvature="0" />
    </g>
  </g>
</svg>
