<?xml version="1.0" encoding="UTF-8" standalone="no"?>
<!-- Created with Inkscape (http://www.inkscape.org/) -->

<svg
   xmlns:dc="http://purl.org/dc/elements/1.1/"
   xmlns:cc="http://creativecommons.org/ns#"
   xmlns:rdf="http://www.w3.org/1999/02/22-rdf-syntax-ns#"
   xmlns:svg="http://www.w3.org/2000/svg"
   xmlns="http://www.w3.org/2000/svg"
   xmlns:sodipodi="http://sodipodi.sourceforge.net/DTD/sodipodi-0.dtd"
   xmlns:inkscape="http://www.inkscape.org/namespaces/inkscape"
   width="128"
   height="128"
   viewBox="0 0 33.866666 33.866668"
   version="1.1"
   id="svg8"
   sodipodi:docname="unsafe.svg"
   inkscape:version="0.92.1 r15371">
  <defs
     id="defs2">
    <marker
       inkscape:stockid="Arrow1Lstart"
       orient="auto"
       refY="0.0"
       refX="0.0"
       id="marker1175"
       style="overflow:visible"
       inkscape:isstock="true">
      <path
         id="path1173"
         d="M 0.0,0.0 L 5.0,-5.0 L -12.5,0.0 L 5.0,5.0 L 0.0,0.0 z "
         style="fill-rule:evenodd;stroke:#000000;stroke-width:1pt;stroke-opacity:1;fill:#000000;fill-opacity:1"
         transform="scale(0.8) translate(12.5,0)" />
    </marker>
    <marker
       inkscape:stockid="Arrow1Lstart"
       orient="auto"
       refY="0.0"
       refX="0.0"
       id="marker1105"
       style="overflow:visible"
       inkscape:isstock="true">
      <path
         id="path1103"
         d="M 0.0,0.0 L 5.0,-5.0 L -12.5,0.0 L 5.0,5.0 L 0.0,0.0 z "
         style="fill-rule:evenodd;stroke:#000000;stroke-width:1pt;stroke-opacity:1;fill:#000000;fill-opacity:1"
         transform="scale(0.8) translate(12.5,0)" />
    </marker>
    <marker
       inkscape:stockid="Arrow1Lstart"
       orient="auto"
       refY="0.0"
       refX="0.0"
       id="Arrow1Lstart"
       style="overflow:visible"
       inkscape:isstock="true">
      <path
         id="path827"
         d="M 0.0,0.0 L 5.0,-5.0 L -12.5,0.0 L 5.0,5.0 L 0.0,0.0 z "
         style="fill-rule:evenodd;stroke:#000000;stroke-width:1pt;stroke-opacity:1;fill:#000000;fill-opacity:1"
         transform="scale(0.8) translate(12.5,0)" />
    </marker>
    <inkscape:path-effect
       effect="bspline"
       id="path-effect819"
       is_visible="true"
       weight="33.333333"
       steps="2"
       helper_size="0"
       apply_no_weight="true"
       apply_with_weight="true"
       only_selected="false" />
    <filter
       style="color-interpolation-filters:sRGB;"
       inkscape:label="Blur"
       id="filter3351">
      <feGaussianBlur
         stdDeviation="0.8 0.8"
         result="blur"
         id="feGaussianBlur3349" />
    </filter>
  </defs>
  <sodipodi:namedview
     id="base"
     pagecolor="#ffffff"
     bordercolor="#666666"
     borderopacity="1.0"
     inkscape:pageopacity="0.0"
     inkscape:pageshadow="2"
     inkscape:zoom="3.959798"
     inkscape:cx="43.486299"
     inkscape:cy="50.793732"
     inkscape:document-units="mm"
     inkscape:current-layer="layer1"
     showgrid="true"
     units="px"
     inkscape:pagecheckerboard="true"
     inkscape:snap-bbox="true"
     inkscape:snap-nodes="false"
     inkscape:snap-bbox-midpoints="false"
     inkscape:bbox-nodes="false"
     inkscape:bbox-paths="false"
     inkscape:window-width="1366"
     inkscape:window-height="768"
     inkscape:window-x="0"
     inkscape:window-y="0"
     inkscape:window-maximized="0"
     inkscape:snap-bbox-edge-midpoints="true">
    <inkscape:grid
       type="xygrid"
       id="grid815"
       empspacing="4"
       spacingx="1.0583333"
       spacingy="1.0583333" />
  </sodipodi:namedview>
  <metadata
     id="metadata5">
    <rdf:RDF>
      <cc:Work
         rdf:about="">
        <dc:format>image/svg+xml</dc:format>
        <dc:type
           rdf:resource="http://purl.org/dc/dcmitype/StillImage" />
        <dc:title></dc:title>
      </cc:Work>
    </rdf:RDF>
  </metadata>
  <g
     inkscape:label="Layer 1"
     inkscape:groupmode="layer"
     id="layer1"
     transform="translate(0,-263.1333)">
    <path
       inkscape:connector-curvature="0"
       style="font-style:normal;font-variant:normal;font-weight:normal;font-stretch:normal;font-size:37.90736008px;line-height:1.25;font-family:'Bitstream Charter';-inkscape-font-specification:'Bitstream Charter, Normal';font-variant-ligatures:normal;font-variant-caps:normal;font-variant-numeric:normal;font-feature-settings:normal;text-align:start;letter-spacing:0px;word-spacing:0px;writing-mode:lr-tb;text-anchor:start;fill:#000000;fill-opacity:0.33333334;stroke:none;stroke-width:0.94770175;filter:url(#filter3351)"
       d="m 18.05901,268.95521 c -0.824117,-0.0259 -1.596927,0.42228 -2.022099,1.17253 l -7.5277071,13.29893 2.1952151,-0.016 3.244247,-5.50974 a 1.0326033,1.0326033 0 0 1 0.890385,-0.50798 1.0326033,1.0326033 0 0 1 0.994255,0.7581 l 2.47065,8.96069 1.896525,-6.11901 a 1.0326033,1.0326033 0 0 1 1.771468,-0.36328 l 2.36523,2.77916 3.13676,0.0176 -7.525122,-13.29687 c -0.400403,-0.70766 -1.112791,-1.15012 -1.889807,-1.17408 z m -3.567742,12.09435 -2.304252,3.91397 a 1.0326033,1.0326033 0 0 1 -0.88315,0.50746 l -3.9682331,0.0289 -2.45308,4.33411 c -0.914721,1.61545 0.181077,3.67318 1.955953,3.67264 H 29.145673 c 1.773779,-1.5e-4 2.869027,-2.05595 1.95595,-3.67109 l -2.455145,-4.33824 -4.793507,-0.0264 a 1.0326033,1.0326033 0 0 1 -0.781348,-0.36328 l -1.455208,-1.71049 -2.384867,7.69514 a 1.0326033,1.0326033 0 0 1 -1.980241,-0.0315 z"
       id="path1184-2" />
    <g
       aria-label="!"
       transform="scale(1.1266385,0.88759614)"
       style="font-style:normal;font-variant:normal;font-weight:normal;font-stretch:normal;font-size:37.90736008px;line-height:1.25;font-family:'Bitstream Charter';-inkscape-font-specification:'Bitstream Charter, Normal';font-variant-ligatures:normal;font-variant-caps:normal;font-variant-numeric:normal;font-feature-settings:normal;text-align:start;letter-spacing:0px;word-spacing:0px;writing-mode:lr-tb;text-anchor:start;fill:#ffffff;fill-opacity:1;stroke:none;stroke-width:0.94770175"
       id="text1172">
      <path
         style="font-style:normal;font-variant:normal;font-weight:normal;font-stretch:normal;font-size:37.90736008px;font-family:'Bitstream Charter';-inkscape-font-specification:'Bitstream Charter, Normal';font-variant-ligatures:normal;font-variant-caps:normal;font-variant-numeric:normal;font-feature-settings:normal;text-align:start;writing-mode:lr-tb;text-anchor:start;fill:#ffffff;stroke-width:3.58186483"
         d="M 64.263672 17.587891 C 61.148899 17.489934 58.228043 19.183909 56.621094 22.019531 L 28.169922 72.283203 L 36.466797 72.222656 L 48.728516 51.398438 A 3.9027526 3.9027526 0 0 1 52.09375 49.478516 A 3.9027526 3.9027526 0 0 1 55.851562 52.34375 L 65.189453 86.210938 L 72.357422 63.083984 A 3.9027526 3.9027526 0 0 1 79.052734 61.710938 L 87.992188 72.214844 L 99.847656 72.28125 L 71.40625 22.025391 C 69.892917 19.35076 67.200428 17.678467 64.263672 17.587891 z M 50.779297 63.298828 L 42.070312 78.091797 A 3.9027526 3.9027526 0 0 1 38.732422 80.009766 L 23.734375 80.119141 L 14.462891 96.5 C 11.005678 102.60564 15.147278 110.38291 21.855469 110.38086 L 106.16602 110.38086 C 112.87007 110.38029 117.00959 102.61033 113.55859 96.505859 L 104.2793 80.109375 L 86.162109 80.009766 A 3.9027526 3.9027526 0 0 1 83.208984 78.636719 L 77.708984 72.171875 L 68.695312 101.25586 A 3.9027526 3.9027526 0 0 1 61.210938 101.13672 L 50.779297 63.298828 z "
         transform="matrix(0.23484315,0,0,0.29808977,0,296.45611)"
         id="path1184" />
    </g>
  </g>
</svg>
