<?xml version="1.0" encoding="UTF-8" standalone="no"?>
<!-- Created with Inkscape (http://www.inkscape.org/) -->

<svg
   xmlns:dc="http://purl.org/dc/elements/1.1/"
   xmlns:cc="http://creativecommons.org/ns#"
   xmlns:rdf="http://www.w3.org/1999/02/22-rdf-syntax-ns#"
   xmlns:svg="http://www.w3.org/2000/svg"
   xmlns="http://www.w3.org/2000/svg"
   xmlns:sodipodi="http://sodipodi.sourceforge.net/DTD/sodipodi-0.dtd"
   xmlns:inkscape="http://www.inkscape.org/namespaces/inkscape"
   width="128"
   height="128"
   viewBox="0 0 33.866666 33.866668"
   version="1.1"
   id="svg8"
   sodipodi:docname="warning.svg"
   inkscape:version="0.92.1 r15371">
  <defs
     id="defs2">
    <marker
       inkscape:stockid="Arrow1Lstart"
       orient="auto"
       refY="0.0"
       refX="0.0"
       id="marker1175"
       style="overflow:visible"
       inkscape:isstock="true">
      <path
         id="path1173"
         d="M 0.0,0.0 L 5.0,-5.0 L -12.5,0.0 L 5.0,5.0 L 0.0,0.0 z "
         style="fill-rule:evenodd;stroke:#000000;stroke-width:1pt;stroke-opacity:1;fill:#000000;fill-opacity:1"
         transform="scale(0.8) translate(12.5,0)" />
    </marker>
    <marker
       inkscape:stockid="Arrow1Lstart"
       orient="auto"
       refY="0.0"
       refX="0.0"
       id="marker1105"
       style="overflow:visible"
       inkscape:isstock="true">
      <path
         id="path1103"
         d="M 0.0,0.0 L 5.0,-5.0 L -12.5,0.0 L 5.0,5.0 L 0.0,0.0 z "
         style="fill-rule:evenodd;stroke:#000000;stroke-width:1pt;stroke-opacity:1;fill:#000000;fill-opacity:1"
         transform="scale(0.8) translate(12.5,0)" />
    </marker>
    <marker
       inkscape:stockid="Arrow1Lstart"
       orient="auto"
       refY="0.0"
       refX="0.0"
       id="Arrow1Lstart"
       style="overflow:visible"
       inkscape:isstock="true">
      <path
         id="path827"
         d="M 0.0,0.0 L 5.0,-5.0 L -12.5,0.0 L 5.0,5.0 L 0.0,0.0 z "
         style="fill-rule:evenodd;stroke:#000000;stroke-width:1pt;stroke-opacity:1;fill:#000000;fill-opacity:1"
         transform="scale(0.8) translate(12.5,0)" />
    </marker>
    <inkscape:path-effect
       effect="bspline"
       id="path-effect819"
       is_visible="true"
       weight="33.333333"
       steps="2"
       helper_size="0"
       apply_no_weight="true"
       apply_with_weight="true"
       only_selected="false" />
    <filter
       style="color-interpolation-filters:sRGB;"
       inkscape:label="Blur"
       id="filter3392">
      <feGaussianBlur
         stdDeviation="0.8 0.8"
         result="blur"
         id="feGaussianBlur3390" />
    </filter>
  </defs>
  <sodipodi:namedview
     id="base"
     pagecolor="#ffffff"
     bordercolor="#666666"
     borderopacity="1.0"
     inkscape:pageopacity="0.0"
     inkscape:pageshadow="2"
     inkscape:zoom="5.6"
     inkscape:cx="61.349153"
     inkscape:cy="61.230935"
     inkscape:document-units="mm"
     inkscape:current-layer="layer1"
     showgrid="true"
     units="px"
     inkscape:pagecheckerboard="true"
     inkscape:snap-bbox="true"
     inkscape:snap-nodes="false"
     inkscape:snap-bbox-midpoints="false"
     inkscape:bbox-nodes="false"
     inkscape:bbox-paths="false"
     inkscape:window-width="1366"
     inkscape:window-height="768"
     inkscape:window-x="0"
     inkscape:window-y="2"
     inkscape:window-maximized="0"
     inkscape:snap-bbox-edge-midpoints="true">
    <inkscape:grid
       type="xygrid"
       id="grid815"
       empspacing="4"
       spacingx="1.0583333"
       spacingy="1.0583333" />
  </sodipodi:namedview>
  <metadata
     id="metadata5">
    <rdf:RDF>
      <cc:Work
         rdf:about="">
        <dc:format>image/svg+xml</dc:format>
        <dc:type
           rdf:resource="http://purl.org/dc/dcmitype/StillImage" />
        <dc:title></dc:title>
      </cc:Work>
    </rdf:RDF>
  </metadata>
  <g
     inkscape:label="Layer 1"
     inkscape:groupmode="layer"
     id="layer1"
     transform="translate(0,-263.1333)">
    <path
       inkscape:connector-curvature="0"
       style="font-style:normal;font-variant:normal;font-weight:normal;font-stretch:normal;font-size:37.90736008px;line-height:1.25;font-family:'Bitstream Charter';-inkscape-font-specification:'Bitstream Charter, Normal';font-variant-ligatures:normal;font-variant-caps:normal;font-variant-numeric:normal;font-feature-settings:normal;text-align:start;letter-spacing:0px;word-spacing:0px;writing-mode:lr-tb;text-anchor:start;fill:#000000;fill-opacity:0.33333333;stroke:none;stroke-width:0.94770175;filter:url(#filter3392)"
       d="m 17.975922,268.94427 c -0.824117,-0.0259 -1.596927,0.42228 -2.022099,1.17253 L 4.7994644,289.8231 c -0.9147209,1.61545 0.1810769,3.67318 1.9559529,3.67264 H 29.062585 c 1.773779,-1.5e-4 2.869027,-2.05595 1.95595,-3.67109 l -11.152806,-19.7063 c -0.400403,-0.70766 -1.112791,-1.15012 -1.889807,-1.17408 z m -0.06976,2.75487 c 0.832787,0 1.839165,0.57175 1.839165,2.19728 0,1.95665 -0.48603,3.22119 -0.833025,5.80998 -0.451091,3.25105 -0.450981,5.05731 -0.520381,5.47874 -0.0347,0.33113 -0.138764,0.60203 -0.485759,0.60203 -0.346993,0 -0.451058,-0.2111 -0.485758,-0.39171 -0.0694,-0.63215 -0.277409,-3.34108 -0.555005,-5.68906 -0.312295,-2.649 -0.798401,-3.70283 -0.798401,-5.80998 0,-1.62553 1.006379,-2.19728 1.839164,-2.19728 z m 0,16.49615 c 1.145083,0 2.116667,0.84282 2.116667,1.80609 0,0.96328 -0.971584,1.80609 -2.116667,1.80609 -1.145081,0 -2.116666,-0.84281 -2.116666,-1.80609 0,-0.96327 0.971585,-1.80609 2.116666,-1.80609 z"
       id="path1184-6" />
    <g
       aria-label="!"
       transform="scale(1.1266385,0.88759614)"
       style="font-style:normal;font-variant:normal;font-weight:normal;font-stretch:normal;font-size:37.90736008px;line-height:1.25;font-family:'Bitstream Charter';-inkscape-font-specification:'Bitstream Charter, Normal';font-variant-ligatures:normal;font-variant-caps:normal;font-variant-numeric:normal;font-feature-settings:normal;text-align:start;letter-spacing:0px;word-spacing:0px;writing-mode:lr-tb;text-anchor:start;fill:#ffffff;fill-opacity:1;stroke:none;stroke-width:0.94770175"
       id="text1172">
      <path
         style="font-style:normal;font-variant:normal;font-weight:normal;font-stretch:normal;font-size:37.90736008px;font-family:'Bitstream Charter';-inkscape-font-specification:'Bitstream Charter, Normal';font-variant-ligatures:normal;font-variant-caps:normal;font-variant-numeric:normal;font-feature-settings:normal;text-align:start;writing-mode:lr-tb;text-anchor:start;fill:#ffffff;stroke-width:3.58186483"
         d="M 64.263672 17.587891 C 61.148899 17.489934 58.228043 19.183909 56.621094 22.019531 L 14.462891 96.5 C 11.005678 102.60564 15.147278 110.38291 21.855469 110.38086 L 106.16602 110.38086 C 112.87007 110.38029 117.00959 102.61033 113.55859 96.505859 L 71.40625 22.025391 C 69.892917 19.35076 67.200428 17.678467 64.263672 17.587891 z M 64 28 C 67.147541 28 70.951172 30.160968 70.951172 36.304688 C 70.951172 43.699899 69.114208 48.479252 67.802734 58.263672 C 66.097822 70.55111 66.098239 77.377921 65.835938 78.970703 C 65.704791 80.22223 65.311477 81.246094 64 81.246094 C 62.688527 81.246094 62.295213 80.448241 62.164062 79.765625 C 61.901769 77.376417 61.115586 67.137925 60.066406 58.263672 C 58.88608 48.251702 57.048828 44.268739 57.048828 36.304688 C 57.048828 30.160968 60.852463 28 64 28 z M 64 90.347656 C 68.327871 90.347656 72 93.533128 72 97.173828 C 72 100.81456 68.327871 104 64 104 C 59.672133 104 56 100.81456 56 97.173828 C 56 93.533128 59.672133 90.347656 64 90.347656 z "
         transform="matrix(0.23484315,0,0,0.29808977,0,296.45611)"
         id="path1184" />
    </g>
    <g
       aria-label="!"
       transform="scale(1.0736465,0.93140525)"
       style="font-style:normal;font-variant:normal;font-weight:normal;font-stretch:normal;font-size:32.3192482px;line-height:1.25;font-family:'Linux Libertine Mono O';-inkscape-font-specification:'Linux Libertine Mono O, Normal';font-variant-ligatures:normal;font-variant-caps:normal;font-variant-numeric:normal;font-feature-settings:normal;text-align:start;letter-spacing:0px;word-spacing:0px;writing-mode:lr-tb;text-anchor:start;fill:#000000;fill-opacity:1;stroke:none;stroke-width:0.80797672"
       id="text1295" />
  </g>
</svg>
